<svg width="234" height="30" viewBox="0 0 234 30" fill="none" xmlns="http://www.w3.org/2000/svg">
<path d="M0 15C0 6.71573 6.71573 0 15 0V0C23.2843 0 30 6.71573 30 15V15C30 23.2843 23.2843 30 15 30V30C6.71573 30 0 23.2843 0 15V15Z" fill="#339AF0"/>
<path d="M24.3751 16.965L15.0001 26.25L5.62507 16.965C5.0067 16.3632 4.51962 15.64 4.19451 14.8408C3.86939 14.0415 3.71327 13.1837 3.73599 12.3211C3.75871 11.4586 3.95977 10.6101 4.32652 9.82915C4.69326 9.04815 5.21774 8.35154 5.86693 7.7832C6.51612 7.21486 7.27595 6.78709 8.09859 6.52683C8.92122 6.26657 9.78883 6.17946 10.6468 6.27098C11.5047 6.3625 12.3344 6.63067 13.0837 7.05861C13.8329 7.48655 14.4854 8.06498 15.0001 8.75748C15.517 8.07 16.1702 7.49663 16.9189 7.07323C17.6677 6.64984 18.4957 6.38554 19.3512 6.29688C20.2068 6.20822 21.0714 6.2971 21.891 6.55797C22.7107 6.81883 23.4676 7.24607 24.1145 7.81293C24.7614 8.37979 25.2844 9.07408 25.6506 9.85234C26.0168 10.6306 26.2185 11.4761 26.243 12.3359C26.2674 13.1956 26.1141 14.0512 25.7927 14.849C25.4713 15.6469 24.9887 16.3698 24.3751 16.9725M15 8.74998L10.8837 12.8662C10.6494 13.1006 10.5177 13.4185 10.5177 13.75C10.5177 14.0814 10.6494 14.3993 10.8837 14.6337L11.5625 15.3125C12.425 16.175 13.825 16.175 14.6875 15.3125L15.9375 14.0625C16.6834 13.3166 17.6951 12.8975 18.75 12.8975C19.8049 12.8975 20.8165 13.3166 21.5625 14.0625L24.375 16.875M15.625 20.625L18.125 23.125M18.75 17.5L21.25 20" stroke="white" stroke-width="2" stroke-linecap="round" stroke-linejoin="round"/>
<path d="M49.5371 22.3027L48.502 18.9043H43.2969L42.2617 22.3027H39L44.0391 7.9668H47.7402L52.7988 22.3027H49.5371ZM47.7793 16.3652L46.7441 13.0449C46.679 12.8236 46.5911 12.5404 46.4805 12.1953C46.3763 11.8438 46.2689 11.4889 46.1582 11.1309C46.054 10.7663 45.9694 10.4505 45.9043 10.1836C45.8392 10.4505 45.748 10.7826 45.6309 11.1797C45.5202 11.5703 45.4128 11.9414 45.3086 12.293C45.2044 12.6445 45.1296 12.8952 45.084 13.0449L44.0586 16.3652H47.7793Z" fill="black"/>
<path d="M67.1934 11.1797C68.4303 11.1797 69.3646 11.4987 69.9961 12.1367C70.6341 12.7682 70.9531 13.7839 70.9531 15.1836V22.3027H67.9648V15.9258C67.9648 15.1445 67.8314 14.5553 67.5645 14.1582C67.2975 13.7611 66.8841 13.5625 66.3242 13.5625C65.5365 13.5625 64.9766 13.8457 64.6445 14.4121C64.3125 14.972 64.1465 15.776 64.1465 16.8242V22.3027H61.168V15.9258C61.168 15.4049 61.1094 14.9688 60.9922 14.6172C60.875 14.2656 60.696 14.002 60.4551 13.8262C60.2142 13.6504 59.9049 13.5625 59.5273 13.5625C58.974 13.5625 58.5378 13.7025 58.2188 13.9824C57.9062 14.2559 57.6816 14.6628 57.5449 15.2031C57.4147 15.737 57.3496 16.3913 57.3496 17.166V22.3027H54.3711V11.3848H56.6465L57.0469 12.7812H57.2129C57.4342 12.4036 57.7109 12.0977 58.043 11.8633C58.3815 11.6289 58.7526 11.4564 59.1562 11.3457C59.5599 11.235 59.9701 11.1797 60.3867 11.1797C61.1875 11.1797 61.8646 11.3099 62.418 11.5703C62.9779 11.8307 63.4076 12.2344 63.707 12.7812H63.9707C64.2962 12.2214 64.7552 11.8145 65.3477 11.5605C65.9466 11.3066 66.5618 11.1797 67.1934 11.1797Z" fill="black"/>
<path d="M78.6191 20.125C78.9447 20.125 79.2604 20.0924 79.5664 20.0273C79.8789 19.9622 80.1882 19.8809 80.4941 19.7832V22C80.1751 22.1432 79.778 22.2604 79.3027 22.3516C78.834 22.4492 78.3197 22.498 77.7598 22.498C77.1087 22.498 76.5228 22.3939 76.002 22.1855C75.4876 21.9707 75.0807 21.6029 74.7812 21.082C74.4883 20.5547 74.3418 19.8223 74.3418 18.8848V13.6211H72.916V12.3613L74.5566 11.3652L75.416 9.06055H77.3203V11.3848H80.377V13.6211H77.3203V18.8848C77.3203 19.3014 77.4375 19.6139 77.6719 19.8223C77.9128 20.0241 78.2285 20.125 78.6191 20.125Z" fill="black"/>
<path d="M93.9414 13.6211H91.3633V22.3027H88.3848V13.6211H86.7441V12.1855L88.3848 11.3848V10.584C88.3848 9.65299 88.541 8.93034 88.8535 8.41602C89.1725 7.89518 89.6185 7.5306 90.1914 7.32227C90.7708 7.10742 91.4544 7 92.2422 7C92.8216 7 93.349 7.04883 93.8242 7.14648C94.2995 7.23763 94.6868 7.3418 94.9863 7.45898L94.2246 9.64648C93.9967 9.57487 93.7493 9.50977 93.4824 9.45117C93.2155 9.39258 92.9095 9.36328 92.5645 9.36328C92.1478 9.36328 91.8418 9.49023 91.6465 9.74414C91.4577 9.99154 91.3633 10.3105 91.3633 10.7012V11.3848H93.9414V13.6211Z" fill="black"/>
<path d="M105.68 11.3848V22.3027H103.395L102.994 20.9062H102.838C102.604 21.2773 102.311 21.5801 101.959 21.8145C101.607 22.0488 101.22 22.2214 100.797 22.332C100.374 22.4427 99.9342 22.498 99.4785 22.498C98.6973 22.498 98.0169 22.3613 97.4375 22.0879C96.8581 21.8079 96.4056 21.375 96.0801 20.7891C95.7611 20.2031 95.6016 19.4414 95.6016 18.5039V11.3848H98.5801V17.7617C98.5801 18.543 98.7201 19.1322 99 19.5293C99.2799 19.9264 99.7259 20.125 100.338 20.125C100.943 20.125 101.419 19.9883 101.764 19.7148C102.109 19.4349 102.35 19.028 102.486 18.4941C102.63 17.9538 102.701 17.2962 102.701 16.5215V11.3848H105.68ZM97.3203 8.58203C97.3203 8.11979 97.4505 7.78451 97.7109 7.57617C97.9779 7.36784 98.3001 7.26367 98.6777 7.26367C99.0488 7.26367 99.3711 7.36784 99.6445 7.57617C99.918 7.78451 100.055 8.11979 100.055 8.58203C100.055 9.01823 99.918 9.34375 99.6445 9.55859C99.3711 9.77344 99.0488 9.88086 98.6777 9.88086C98.3001 9.88086 97.9779 9.77344 97.7109 9.55859C97.4505 9.34375 97.3203 9.01823 97.3203 8.58203ZM101.256 8.58203C101.256 8.11979 101.386 7.78451 101.646 7.57617C101.913 7.36784 102.242 7.26367 102.633 7.26367C103.004 7.26367 103.326 7.36784 103.6 7.57617C103.88 7.78451 104.02 8.11979 104.02 8.58203C104.02 9.01823 103.88 9.34375 103.6 9.55859C103.326 9.77344 103.004 9.88086 102.633 9.88086C102.242 9.88086 101.913 9.77344 101.646 9.55859C101.386 9.34375 101.256 9.01823 101.256 8.58203Z" fill="black"/>
<path d="M114.898 11.1797C115.048 11.1797 115.221 11.1895 115.416 11.209C115.618 11.222 115.781 11.2415 115.904 11.2676L115.68 14.0605C115.582 14.028 115.442 14.0052 115.26 13.9922C115.084 13.9727 114.931 13.9629 114.801 13.9629C114.417 13.9629 114.042 14.0117 113.678 14.1094C113.32 14.207 112.997 14.3665 112.711 14.5879C112.424 14.8027 112.197 15.0892 112.027 15.4473C111.865 15.7988 111.783 16.2318 111.783 16.7461V22.3027H108.805V11.3848H111.061L111.5 13.2207H111.646C111.861 12.8496 112.128 12.5111 112.447 12.2051C112.773 11.8926 113.141 11.6452 113.551 11.4629C113.967 11.2741 114.417 11.1797 114.898 11.1797Z" fill="black"/>
<path d="M123.316 22.3027V8.02539H126.344V22.3027H123.316Z" fill="black"/>
<path d="M135.904 11.1797C137.07 11.1797 138.007 11.4987 138.717 12.1367C139.426 12.7682 139.781 13.7839 139.781 15.1836V22.3027H136.803V15.9258C136.803 15.1445 136.66 14.5553 136.373 14.1582C136.093 13.7611 135.65 13.5625 135.045 13.5625C134.133 13.5625 133.512 13.8717 133.18 14.4902C132.848 15.1087 132.682 16.0007 132.682 17.166V22.3027H129.703V11.3848H131.979L132.379 12.7812H132.545C132.779 12.4036 133.069 12.0977 133.414 11.8633C133.766 11.6289 134.153 11.4564 134.576 11.3457C135.006 11.235 135.449 11.1797 135.904 11.1797Z" fill="black"/>
<path d="M147.447 20.125C147.773 20.125 148.089 20.0924 148.395 20.0273C148.707 19.9622 149.016 19.8809 149.322 19.7832V22C149.003 22.1432 148.606 22.2604 148.131 22.3516C147.662 22.4492 147.148 22.498 146.588 22.498C145.937 22.498 145.351 22.3939 144.83 22.1855C144.316 21.9707 143.909 21.6029 143.609 21.082C143.316 20.5547 143.17 19.8223 143.17 18.8848V13.6211H141.744V12.3613L143.385 11.3652L144.244 9.06055H146.148V11.3848H149.205V13.6211H146.148V18.8848C146.148 19.3014 146.266 19.6139 146.5 19.8223C146.741 20.0241 147.057 20.125 147.447 20.125Z" fill="black"/>
<path d="M156.041 11.1797C157.05 11.1797 157.919 11.375 158.648 11.7656C159.378 12.1497 159.941 12.7096 160.338 13.4453C160.735 14.181 160.934 15.0794 160.934 16.1406V17.5859H153.893C153.925 18.4258 154.176 19.0866 154.645 19.5684C155.12 20.0436 155.777 20.2812 156.617 20.2812C157.314 20.2812 157.952 20.2096 158.531 20.0664C159.111 19.9232 159.706 19.7083 160.318 19.4219V21.7266C159.778 21.9935 159.212 22.1888 158.619 22.3125C158.033 22.4362 157.32 22.498 156.48 22.498C155.387 22.498 154.417 22.2962 153.57 21.8926C152.73 21.4889 152.07 20.8737 151.588 20.0469C151.113 19.2201 150.875 18.1784 150.875 16.9219C150.875 15.6458 151.09 14.5846 151.52 13.7383C151.956 12.8854 152.561 12.2474 153.336 11.8242C154.111 11.3945 155.012 11.1797 156.041 11.1797ZM156.061 13.2988C155.481 13.2988 154.999 13.4844 154.615 13.8555C154.238 14.2266 154.02 14.8092 153.961 15.6035H158.141C158.134 15.1608 158.053 14.7669 157.896 14.4219C157.747 14.0768 157.519 13.8034 157.213 13.6016C156.913 13.3997 156.529 13.2988 156.061 13.2988Z" fill="black"/>
<path d="M166.549 27.1074C165.025 27.1074 163.86 26.8405 163.053 26.3066C162.252 25.7793 161.852 25.0371 161.852 24.0801C161.852 23.4225 162.057 22.8724 162.467 22.4297C162.877 21.987 163.479 21.6712 164.273 21.4824C163.967 21.3522 163.701 21.1406 163.473 20.8477C163.245 20.5482 163.131 20.2324 163.131 19.9004C163.131 19.4837 163.251 19.1387 163.492 18.8652C163.733 18.5853 164.081 18.3118 164.537 18.0449C163.964 17.7975 163.508 17.4004 163.17 16.8535C162.838 16.3066 162.672 15.6621 162.672 14.9199C162.672 14.1257 162.844 13.4518 163.189 12.8984C163.541 12.3385 164.049 11.9121 164.713 11.6191C165.383 11.3262 166.197 11.1797 167.154 11.1797C167.356 11.1797 167.59 11.1927 167.857 11.2188C168.124 11.2448 168.368 11.2741 168.59 11.3066C168.818 11.3392 168.971 11.3652 169.049 11.3848H172.857V12.8984L171.148 13.3379C171.305 13.5788 171.422 13.8359 171.5 14.1094C171.578 14.3828 171.617 14.6725 171.617 14.9785C171.617 16.1504 171.207 17.0651 170.387 17.7227C169.573 18.3737 168.44 18.6992 166.988 18.6992C166.643 18.6797 166.318 18.6536 166.012 18.6211C165.862 18.7383 165.748 18.862 165.67 18.9922C165.592 19.1224 165.553 19.2591 165.553 19.4023C165.553 19.5456 165.611 19.666 165.729 19.7637C165.852 19.8548 166.035 19.9264 166.275 19.9785C166.523 20.0241 166.829 20.0469 167.193 20.0469H169.049C170.247 20.0469 171.158 20.304 171.783 20.8184C172.415 21.3327 172.73 22.0879 172.73 23.084C172.73 24.36 172.197 25.3496 171.129 26.0527C170.068 26.7559 168.541 27.1074 166.549 27.1074ZM166.676 25.1641C167.385 25.1641 167.994 25.0957 168.502 24.959C169.016 24.8288 169.41 24.64 169.684 24.3926C169.957 24.1517 170.094 23.862 170.094 23.5234C170.094 23.25 170.012 23.0319 169.85 22.8691C169.693 22.7129 169.452 22.6022 169.127 22.5371C168.808 22.472 168.398 22.4395 167.896 22.4395H166.354C165.989 22.4395 165.66 22.498 165.367 22.6152C165.081 22.7324 164.853 22.8952 164.684 23.1035C164.514 23.3184 164.43 23.5658 164.43 23.8457C164.43 24.2559 164.625 24.5781 165.016 24.8125C165.413 25.0469 165.966 25.1641 166.676 25.1641ZM167.154 16.8828C167.714 16.8828 168.124 16.7103 168.385 16.3652C168.645 16.0202 168.775 15.5514 168.775 14.959C168.775 14.3014 168.639 13.8099 168.365 13.4844C168.098 13.1523 167.695 12.9863 167.154 12.9863C166.607 12.9863 166.197 13.1523 165.924 13.4844C165.65 13.8099 165.514 14.3014 165.514 14.959C165.514 15.5514 165.647 16.0202 165.914 16.3652C166.188 16.7103 166.601 16.8828 167.154 16.8828Z" fill="black"/>
<path d="M180.758 11.1797C180.908 11.1797 181.08 11.1895 181.275 11.209C181.477 11.222 181.64 11.2415 181.764 11.2676L181.539 14.0605C181.441 14.028 181.301 14.0052 181.119 13.9922C180.943 13.9727 180.79 13.9629 180.66 13.9629C180.276 13.9629 179.902 14.0117 179.537 14.1094C179.179 14.207 178.857 14.3665 178.57 14.5879C178.284 14.8027 178.056 15.0892 177.887 15.4473C177.724 15.7988 177.643 16.2318 177.643 16.7461V22.3027H174.664V11.3848H176.92L177.359 13.2207H177.506C177.721 12.8496 177.988 12.5111 178.307 12.2051C178.632 11.8926 179 11.6452 179.41 11.4629C179.827 11.2741 180.276 11.1797 180.758 11.1797Z" fill="black"/>
<path d="M188.219 11.1602C189.684 11.1602 190.807 11.4792 191.588 12.1172C192.369 12.7552 192.76 13.7253 192.76 15.0273V22.3027H190.68L190.104 20.8184H190.025C189.713 21.209 189.394 21.528 189.068 21.7754C188.743 22.0228 188.368 22.2051 187.945 22.3223C187.522 22.4395 187.008 22.498 186.402 22.498C185.758 22.498 185.178 22.3743 184.664 22.127C184.156 21.8796 183.756 21.502 183.463 20.9941C183.17 20.4798 183.023 19.8288 183.023 19.041C183.023 17.8822 183.43 17.0293 184.244 16.4824C185.058 15.929 186.279 15.623 187.906 15.5645L189.801 15.5059V15.0273C189.801 14.4544 189.651 14.0345 189.352 13.7676C189.052 13.5007 188.635 13.3672 188.102 13.3672C187.574 13.3672 187.057 13.4421 186.549 13.5918C186.041 13.7415 185.533 13.9303 185.025 14.1582L184.039 12.1465C184.618 11.8405 185.266 11.5996 185.982 11.4238C186.705 11.248 187.451 11.1602 188.219 11.1602ZM189.801 17.2441L188.648 17.2832C187.685 17.3092 187.014 17.4818 186.637 17.8008C186.266 18.1198 186.08 18.5397 186.08 19.0605C186.08 19.5163 186.214 19.8418 186.48 20.0371C186.747 20.2259 187.096 20.3203 187.525 20.3203C188.163 20.3203 188.701 20.1315 189.137 19.7539C189.579 19.3763 189.801 18.8392 189.801 18.1426V17.2441Z" fill="black"/>
<path d="M200.436 20.125C200.761 20.125 201.077 20.0924 201.383 20.0273C201.695 19.9622 202.005 19.8809 202.311 19.7832V22C201.992 22.1432 201.594 22.2604 201.119 22.3516C200.65 22.4492 200.136 22.498 199.576 22.498C198.925 22.498 198.339 22.3939 197.818 22.1855C197.304 21.9707 196.897 21.6029 196.598 21.082C196.305 20.5547 196.158 19.8223 196.158 18.8848V13.6211H194.732V12.3613L196.373 11.3652L197.232 9.06055H199.137V11.3848H202.193V13.6211H199.137V18.8848C199.137 19.3014 199.254 19.6139 199.488 19.8223C199.729 20.0241 200.045 20.125 200.436 20.125Z" fill="black"/>
<path d="M207.506 11.3848V22.3027H204.527V11.3848H207.506ZM206.021 7.10742C206.464 7.10742 206.845 7.21159 207.164 7.41992C207.483 7.62174 207.643 8.0026 207.643 8.5625C207.643 9.11589 207.483 9.5 207.164 9.71484C206.845 9.92318 206.464 10.0273 206.021 10.0273C205.572 10.0273 205.188 9.92318 204.869 9.71484C204.557 9.5 204.4 9.11589 204.4 8.5625C204.4 8.0026 204.557 7.62174 204.869 7.41992C205.188 7.21159 205.572 7.10742 206.021 7.10742Z" fill="black"/>
<path d="M220.562 16.8242C220.562 17.7357 220.439 18.543 220.191 19.2461C219.951 19.9492 219.596 20.5449 219.127 21.0332C218.665 21.515 218.105 21.8796 217.447 22.127C216.796 22.3743 216.061 22.498 215.24 22.498C214.472 22.498 213.766 22.3743 213.121 22.127C212.483 21.8796 211.926 21.515 211.451 21.0332C210.982 20.5449 210.618 19.9492 210.357 19.2461C210.104 18.543 209.977 17.7357 209.977 16.8242C209.977 15.6133 210.191 14.5879 210.621 13.748C211.051 12.9082 211.663 12.2702 212.457 11.834C213.251 11.3978 214.199 11.1797 215.299 11.1797C216.321 11.1797 217.226 11.3978 218.014 11.834C218.808 12.2702 219.43 12.9082 219.879 13.748C220.335 14.5879 220.562 15.6133 220.562 16.8242ZM213.014 16.8242C213.014 17.5404 213.092 18.1426 213.248 18.6309C213.404 19.1191 213.648 19.487 213.98 19.7344C214.312 19.9818 214.745 20.1055 215.279 20.1055C215.807 20.1055 216.233 19.9818 216.559 19.7344C216.891 19.487 217.132 19.1191 217.281 18.6309C217.438 18.1426 217.516 17.5404 217.516 16.8242C217.516 16.1016 217.438 15.5026 217.281 15.0273C217.132 14.5456 216.891 14.1842 216.559 13.9434C216.227 13.7025 215.794 13.582 215.26 13.582C214.472 13.582 213.899 13.8522 213.541 14.3926C213.189 14.9329 213.014 15.7435 213.014 16.8242Z" fill="black"/>
<path d="M229.225 11.1797C230.39 11.1797 231.327 11.4987 232.037 12.1367C232.747 12.7682 233.102 13.7839 233.102 15.1836V22.3027H230.123V15.9258C230.123 15.1445 229.98 14.5553 229.693 14.1582C229.413 13.7611 228.971 13.5625 228.365 13.5625C227.454 13.5625 226.832 13.8717 226.5 14.4902C226.168 15.1087 226.002 16.0007 226.002 17.166V22.3027H223.023V11.3848H225.299L225.699 12.7812H225.865C226.1 12.4036 226.389 12.0977 226.734 11.8633C227.086 11.6289 227.473 11.4564 227.896 11.3457C228.326 11.235 228.769 11.1797 229.225 11.1797Z" fill="black"/>
</svg>
