<svg width="30" height="30" viewBox="0 0 30 30" fill="none" xmlns="http://www.w3.org/2000/svg">
<path d="M0 15C0 6.71573 6.71573 0 15 0V0C23.2843 0 30 6.71573 30 15V15C30 23.2843 23.2843 30 15 30V30C6.71573 30 0 23.2843 0 15V15Z" fill="#339AF0"/>
<path d="M24.3751 16.965L15.0001 26.25L5.62507 16.965C5.0067 16.3632 4.51962 15.64 4.19451 14.8408C3.86939 14.0415 3.71327 13.1837 3.73599 12.3211C3.75871 11.4586 3.95977 10.6101 4.32652 9.82915C4.69326 9.04815 5.21774 8.35154 5.86693 7.7832C6.51612 7.21486 7.27595 6.78709 8.09859 6.52683C8.92122 6.26657 9.78883 6.17946 10.6468 6.27098C11.5047 6.3625 12.3344 6.63067 13.0837 7.05861C13.8329 7.48655 14.4854 8.06498 15.0001 8.75748C15.517 8.07 16.1702 7.49663 16.9189 7.07323C17.6677 6.64984 18.4957 6.38554 19.3512 6.29688C20.2068 6.20822 21.0714 6.2971 21.891 6.55797C22.7107 6.81883 23.4676 7.24607 24.1145 7.81293C24.7614 8.37979 25.2844 9.07408 25.6506 9.85234C26.0168 10.6306 26.2185 11.4761 26.243 12.3359C26.2674 13.1956 26.1141 14.0512 25.7927 14.849C25.4713 15.6469 24.9887 16.3698 24.3751 16.9725M15 8.74998L10.8837 12.8662C10.6494 13.1006 10.5177 13.4185 10.5177 13.75C10.5177 14.0814 10.6494 14.3993 10.8837 14.6337L11.5625 15.3125C12.425 16.175 13.825 16.175 14.6875 15.3125L15.9375 14.0625C16.6834 13.3166 17.6951 12.8975 18.75 12.8975C19.8049 12.8975 20.8165 13.3166 21.5625 14.0625L24.375 16.875M15.625 20.625L18.125 23.125M18.75 17.5L21.25 20" stroke="white" stroke-width="2" stroke-linecap="round" stroke-linejoin="round"/>
</svg>
